<svg clip-rule="evenodd" fill-rule="evenodd" stroke-linejoin="round" stroke-miterlimit="2" viewBox="0 0 24 24" xmlns="http://www.w3.org/2000/svg"><g id="Icon"><path d="m8.061 11.166c1.244-2.448 4.08-3.011 5.894-2.133 1.97.952 2.864 3.671 2.009 6.861-.522 2.17-2.616 4.787-4.47 6.637-.189.189-.465.263-.723.194-2.531-.675-5.653-1.895-7.19-3.513-2.336-2.335-2.921-5.136-1.691-6.946 1.132-1.668 3.87-2.598 6.171-1.1zm-.2 1.763c-1.634-1.631-3.871-1.085-4.73.179-.418.615-.475 1.394-.255 2.215.252.941.861 1.926 1.772 2.834.005.006.01.011.015.016 1.295 1.369 3.879 2.368 6.076 2.987 1.593-1.634 3.332-3.792 3.768-5.624.002-.008.004-.015.006-.022.334-1.242.369-2.4.117-3.341-.22-.821-.659-1.467-1.328-1.79-1.376-.666-3.586-.02-4.187 2.21-.069.258-.271.46-.53.529-.258.069-.534-.004-.724-.193z"/><path d="m15.987 14.449c-.386.148-.82-.046-.968-.432-.149-.387.045-.821.431-.969 1.534-.588 3.012-1.338 3.887-2.263.005-.006.01-.011.015-.016.911-.909 1.52-1.894 1.772-2.835.22-.821.163-1.6-.255-2.214-.859-1.265-3.096-1.811-4.73-.18-.19.189-.466.263-.724.193-.259-.069-.461-.271-.53-.529-.601-2.23-2.811-2.876-4.187-2.21-.669.324-1.108.97-1.328 1.79-.252.941-.217 2.099.117 3.342.002.007.004.014.006.021.123.52.359 1.068.664 1.624.2.363.067.819-.296 1.018-.363.2-.819.067-1.018-.296-.373-.68-.654-1.352-.807-1.989-.855-3.19.039-5.907 2.009-6.86 1.814-.878 4.65-.315 5.894 2.134 2.301-1.499 5.039-.568 6.171 1.099 1.229 1.81.645 4.611-1.684 6.939-1.005 1.062-2.679 1.958-4.439 2.633z"/><path d="m6.171 5.165c.185.37.035.821-.336 1.006-.37.185-.821.035-1.006-.336l-.5-1c-.185-.37-.035-.821.336-1.006.37-.185.821-.035 1.006.336z"/><path d="m17.329 18.835c-.185-.37-.035-.821.336-1.006.37-.185.821-.035 1.006.336l.5 1c.185.37.035.821-.336 1.006-.37.185-.821.035-1.006-.336z"/><path d="m3.835 9.671c-.37.185-.821.035-1.006-.336-.185-.37-.035-.821.336-1.006l1-.5c.37-.185.821-.035 1.006.336.185.37.035.821-.336 1.006z"/><path d="m19.665 14.329c.37-.185.821-.035 1.006.336.185.37.035.821-.336 1.006l-1 .5c-.37.185-.821.035-1.006-.336-.185-.37-.035-.821.336-1.006z"/></g></svg>