<svg height="512" viewBox="0 0 64 64" width="512" xmlns="http://www.w3.org/2000/svg" xmlns:xlink="http://www.w3.org/1999/xlink"><linearGradient id="linear-gradient" gradientUnits="userSpaceOnUse" x1="32" x2="32" y1="1.304" y2="63.304"><stop offset="0" stop-color="#ff3d3d"/><stop offset=".307" stop-color="#db2a28"/><stop offset=".771" stop-color="#a90f0b"/><stop offset="1" stop-color="#960500"/></linearGradient><linearGradient id="linear-gradient-2" gradientUnits="userSpaceOnUse" x1="32" x2="32" y1="49.094" y2="44.273"><stop offset=".005" stop-color="#414d4d"/><stop offset=".136" stop-color="#353f3f"/><stop offset=".501" stop-color="#181d1d"/><stop offset=".802" stop-color="#060808"/><stop offset="1"/></linearGradient><linearGradient id="linear-gradient-3" gradientUnits="userSpaceOnUse" x1="43" x2="43" y1="34.075" y2="26.102"><stop offset=".005" stop-color="#414d4d"/><stop offset=".206" stop-color="#3a4545"/><stop offset=".522" stop-color="#272e2e"/><stop offset=".914" stop-color="#080909"/><stop offset="1"/></linearGradient><linearGradient id="linear-gradient-4" x1="51.325" x2="39.597" xlink:href="#linear-gradient-2" y1="21.295" y2="27.679"/><linearGradient id="linear-gradient-5" gradientTransform="matrix(-1 0 0 1 36 0)" x1="23.325" x2="11.597" xlink:href="#linear-gradient-2" y1="21.295" y2="27.679"/><linearGradient id="linear-gradient-6" x1="21" x2="21" xlink:href="#linear-gradient-3" y1="34.019" y2="26.216"/><g id="_19-Pouting_Face" data-name="19-Pouting Face"><path d="m32 63c-27.7 0-31.038-24-31-30v-2c-.038-6 3.3-30 31-30 27.7 0 31.038 24 31 30v2c.038 6-3.3 30-31 30z" fill="url(#linear-gradient)"/><path d="m38.251 44.408a14.582 14.582 0 0 0 -12.5 0 9.045 9.045 0 0 0 -4.751 5.592s6-3 11-3 11 3 11 3a9.045 9.045 0 0 0 -4.749-5.592z" fill="#940003"/><path d="m38.251 45.408a14.582 14.582 0 0 0 -12.5 0c-3.888 1.876-4.751 4.592-4.751 4.592a41.72 41.72 0 0 1 11-2 41.72 41.72 0 0 1 11 2s-.863-2.716-4.749-4.592z" fill="#c70e1c"/><path d="m43 50s-.863-2.716-4.749-4.592a14.582 14.582 0 0 0 -12.5 0c-3.888 1.876-4.751 4.592-4.751 4.592s6-3 11-3 11 3 11 3z" fill="url(#linear-gradient-2)"/><path d="m43.023 26a7.788 7.788 0 0 0 -2.834 2.64 5.177 5.177 0 0 0 -.189 1.36c0 2.209 1.343 4 3 4s3-1.791 3-4-1.331-3.98-2.977-4z" fill="url(#linear-gradient-3)"/><path d="m50.555 24.036c-8.755.453-10.555 4.964-10.555 4.964s0-7 10-8h.479a1.521 1.521 0 0 1 1.521 1.521 1.521 1.521 0 0 1 -1.445 1.515z" fill="url(#linear-gradient-4)"/><path d="m13.445 24.036c8.755.453 10.555 4.964 10.555 4.964s0-7-10-8h-.479a1.521 1.521 0 0 0 -1.521 1.521 1.521 1.521 0 0 0 1.445 1.515z" fill="url(#linear-gradient-5)"/><path d="m20.977 26a7.788 7.788 0 0 1 2.834 2.64 5.177 5.177 0 0 1 .189 1.36c0 2.209-1.343 4-3 4s-3-1.791-3-4 1.331-3.98 2.977-4z" fill="url(#linear-gradient-6)"/><path d="m43 28c1.4 0 2.559 1.277 2.894 3a5.267 5.267 0 0 0 .106-1c0-2.2-1.331-3.98-2.977-4a7.788 7.788 0 0 0 -2.834 2.64 5.177 5.177 0 0 0 -.189 1.36 5.267 5.267 0 0 0 .106 1c.335-1.72 1.494-3 2.894-3z"/><path d="m23.811 28.643a7.788 7.788 0 0 0 -2.834-2.643c-1.646.02-2.977 1.8-2.977 4a5.267 5.267 0 0 0 .106 1c.335-1.722 1.5-3 2.894-3s2.559 1.277 2.894 3a5.267 5.267 0 0 0 .106-1 5.177 5.177 0 0 0 -.189-1.357z"/><path d="m50.555 24.036a16.342 16.342 0 0 0 -7.522 1.964 2.4 2.4 0 0 1 1.23.38 17.851 17.851 0 0 1 6.292-1.348 1.521 1.521 0 0 0 1.445-1.511 1.5 1.5 0 0 0 -.091-.5 1.521 1.521 0 0 1 -1.354 1.015z" fill="#b00003"/><path d="m13.445 24.036a1.521 1.521 0 0 1 -1.354-1.014 1.5 1.5 0 0 0 -.091.5 1.521 1.521 0 0 0 1.445 1.515 17.851 17.851 0 0 1 6.292 1.348 2.4 2.4 0 0 1 1.23-.38 16.342 16.342 0 0 0 -7.522-1.969z" fill="#b00003"/><g fill="#940003"><path d="m21 34c-1.529 0-2.776-1.53-2.962-3.5-.016.166-.038.329-.038.5 0 2.209 1.343 4 3 4s3-1.791 3-4a4.687 4.687 0 0 0 -.037-.508c-.184 1.974-1.433 3.508-2.963 3.508z"/><path d="m43 34c-1.53 0-2.779-1.534-2.963-3.508a4.687 4.687 0 0 0 -.037.508c0 2.209 1.343 4 3 4s3-1.791 3-4c0-.172-.022-.335-.038-.5-.186 1.97-1.433 3.5-2.962 3.5z"/></g></g></svg>